# xmcd CD database file
#
# Track frame offsets:
#	150
#	11270
#	22449
#	34471
#	45377
#	58420
#	68817
#	80506
#	90900
#	100830
#
# Disc length: 1460 seconds
#
# Revision: 0
# Processed by: cddbd v1.5.2PL0 Copyright (c) Steve Scherf et al.
# Submitted via: CDex 1.77
#
DISCID=7d05b20a
DTITLE=Various Artist - Country Classics Hits of the 1958's
DYEAR=1999
DGENRE=Country
TTITLE0=Don Gibson - Oh Lonesome Me
TTITLE1=Bobby Helms - Jacqueline
TTITLE2=Stonewall Jackson - Life To Go
TTITLE3=Hank Locklin - Send Me The Pillow You Dream On
TTITLE4=Ray Price - City Lights
TTITLE5=Wilma Lee and Stoney Cooper - Come Walk With Me
TTITLE6=Hank Thompson - Squaws Along The Yukon
TTITLE7=Charlie Walker - Pick Me Uup On Your Way Down
TTITLE8=Kitty Wells - I Can't Stop Loving You
TTITLE9=Faron Young - Alone With You
EXTD=YEAR: 1999
EXTT0=
EXTT1=
EXTT2=
EXTT3=
EXTT4=
EXTT5=
EXTT6=
EXTT7=
EXTT8=
EXTT9=
PLAYORDER=
